<?xml version="1.0" standalone="no"?>
<!DOCTYPE svg PUBLIC "-//W3C//DTD SVG 20010904//EN"
 "http://www.w3.org/TR/2001/REC-SVG-20010904/DTD/svg10.dtd">
<svg version="1.0" xmlns="http://www.w3.org/2000/svg"
 width="200.000000pt" height="200.000000pt" viewBox="0 0 200.000000 200.000000"
 preserveAspectRatio="xMidYMid meet">
<metadata>
Created by potrace 1.11, written by Peter Selinger 2001-2013
</metadata>
<g transform="translate(0.000000,200.000000) scale(0.100000,-0.100000)"
fill="#000000" stroke="none">
<path d="M1302 1707 c-17 -6 -49 -24 -69 -42 l-37 -32 27 -33 c63 -74 88 -153
60 -191 -27 -36 -40 -67 -58 -139 -21 -84 -54 -155 -103 -222 -83 -111 -168
-172 -409 -291 -222 -110 -261 -137 -328 -229 -48 -66 -51 -85 -22 -151 35
-79 63 -92 197 -92 129 0 181 7 296 40 98 29 322 133 354 165 3 3 31 24 62 48
75 57 195 183 247 261 98 143 142 271 137 395 -6 157 -38 214 -159 289 -65 40
-93 104 -96 220 -1 20 -38 21 -99 4z"/>
</g>
</svg>
